<svg width="16" height="16" viewBox="0 0 16 16" fill="none" xmlns="http://www.w3.org/2000/svg">
<path d="M5.33331 3.83337C5.05998 3.83337 4.83331 3.60671 4.83331 3.33337V1.33337C4.83331 1.06004 5.05998 0.833374 5.33331 0.833374C5.60665 0.833374 5.83331 1.06004 5.83331 1.33337V3.33337C5.83331 3.60671 5.60665 3.83337 5.33331 3.83337Z" fill="#0F62FE"/>
<path d="M10.6667 3.83337C10.3934 3.83337 10.1667 3.60671 10.1667 3.33337V1.33337C10.1667 1.06004 10.3934 0.833374 10.6667 0.833374C10.94 0.833374 11.1667 1.06004 11.1667 1.33337V3.33337C11.1667 3.60671 10.94 3.83337 10.6667 3.83337Z" fill="#0F62FE"/>
<path d="M5.66667 9.66667C5.58 9.66667 5.49333 9.64668 5.41333 9.61335C5.32667 9.58001 5.26 9.53333 5.19333 9.47333C5.07333 9.34667 5 9.18 5 9C5 8.91334 5.02 8.82667 5.05333 8.74667C5.08667 8.66667 5.13333 8.59334 5.19333 8.52668C5.26 8.46668 5.32667 8.42 5.41333 8.38666C5.65333 8.28666 5.95333 8.34001 6.14 8.52668C6.26 8.65334 6.33333 8.82667 6.33333 9C6.33333 9.04 6.32667 9.08668 6.32 9.13335C6.31333 9.17335 6.3 9.21334 6.28 9.25334C6.26667 9.29334 6.24667 9.33334 6.22 9.37334C6.2 9.40667 6.16667 9.44 6.14 9.47333C6.01333 9.59333 5.84 9.66667 5.66667 9.66667Z" fill="#0F62FE"/>
<path d="M7.99998 9.66671C7.91331 9.66671 7.82665 9.64671 7.74665 9.61338C7.65998 9.58005 7.59331 9.53337 7.52665 9.47337C7.40665 9.3467 7.33331 9.18004 7.33331 9.00004C7.33331 8.91337 7.35331 8.8267 7.38665 8.7467C7.41998 8.6667 7.46665 8.59338 7.52665 8.52671C7.59331 8.46671 7.65998 8.42003 7.74665 8.3867C7.98665 8.28003 8.28665 8.34004 8.47331 8.52671C8.59331 8.65338 8.66665 8.8267 8.66665 9.00004C8.66665 9.04004 8.65998 9.08671 8.65331 9.13338C8.64665 9.17338 8.63331 9.21337 8.61331 9.25337C8.59998 9.29337 8.57998 9.33337 8.55331 9.37337C8.53331 9.4067 8.49998 9.44003 8.47331 9.47337C8.34665 9.59337 8.17331 9.66671 7.99998 9.66671Z" fill="#0F62FE"/>
<path d="M10.3334 9.66671C10.2467 9.66671 10.16 9.64671 10.08 9.61338C9.99335 9.58005 9.92669 9.53337 9.86002 9.47337C9.83335 9.44003 9.80669 9.4067 9.78002 9.37337C9.75335 9.33337 9.73335 9.29337 9.72002 9.25337C9.70002 9.21337 9.68669 9.17338 9.68002 9.13338C9.67335 9.08671 9.66669 9.04004 9.66669 9.00004C9.66669 8.8267 9.74002 8.65338 9.86002 8.52671C9.92669 8.46671 9.99335 8.42003 10.08 8.3867C10.3267 8.28003 10.62 8.34004 10.8067 8.52671C10.9267 8.65338 11 8.8267 11 9.00004C11 9.04004 10.9934 9.08671 10.9867 9.13338C10.98 9.17338 10.9667 9.21337 10.9467 9.25337C10.9334 9.29337 10.9134 9.33337 10.8867 9.37337C10.8667 9.4067 10.8334 9.44003 10.8067 9.47337C10.68 9.59337 10.5067 9.66671 10.3334 9.66671Z" fill="#0F62FE"/>
<path d="M5.66667 12C5.58 12 5.49333 11.9801 5.41333 11.9467C5.33333 11.9134 5.26 11.8667 5.19333 11.8067C5.07333 11.68 5 11.5067 5 11.3334C5 11.2467 5.02 11.16 5.05333 11.08C5.08667 10.9934 5.13333 10.92 5.19333 10.86C5.44 10.6134 5.89333 10.6134 6.14 10.86C6.26 10.9867 6.33333 11.16 6.33333 11.3334C6.33333 11.5067 6.26 11.68 6.14 11.8067C6.01333 11.9267 5.84 12 5.66667 12Z" fill="#0F62FE"/>
<path d="M7.99998 12C7.82665 12 7.65331 11.9267 7.52665 11.8067C7.40665 11.68 7.33331 11.5067 7.33331 11.3334C7.33331 11.2467 7.35331 11.16 7.38665 11.08C7.41998 10.9934 7.46665 10.92 7.52665 10.86C7.77331 10.6134 8.22665 10.6134 8.47331 10.86C8.53331 10.92 8.57998 10.9934 8.61331 11.08C8.64665 11.16 8.66665 11.2467 8.66665 11.3334C8.66665 11.5067 8.59331 11.68 8.47331 11.8067C8.34665 11.9267 8.17331 12 7.99998 12Z" fill="#0F62FE"/>
<path d="M10.3334 12.0001C10.16 12.0001 9.98669 11.9267 9.86002 11.8067C9.80002 11.7467 9.75335 11.6734 9.72002 11.5867C9.68669 11.5067 9.66669 11.4201 9.66669 11.3334C9.66669 11.2467 9.68669 11.1601 9.72002 11.0801C9.75335 10.9934 9.80002 10.9201 9.86002 10.8601C10.0134 10.7067 10.2467 10.6334 10.46 10.6801C10.5067 10.6867 10.5467 10.7001 10.5867 10.7201C10.6267 10.7334 10.6667 10.7534 10.7067 10.7801C10.74 10.8001 10.7734 10.8334 10.8067 10.8601C10.9267 10.9867 11 11.1601 11 11.3334C11 11.5067 10.9267 11.6801 10.8067 11.8067C10.68 11.9267 10.5067 12.0001 10.3334 12.0001Z" fill="#0F62FE"/>
<path d="M13.6666 6.55994H2.33331C2.05998 6.55994 1.83331 6.33327 1.83331 6.05994C1.83331 5.7866 2.05998 5.55994 2.33331 5.55994H13.6666C13.94 5.55994 14.1666 5.7866 14.1666 6.05994C14.1666 6.33327 13.94 6.55994 13.6666 6.55994Z" fill="#0F62FE"/>
<path d="M10.6667 15.1667H5.33333C2.9 15.1667 1.5 13.7667 1.5 11.3334V5.66671C1.5 3.23337 2.9 1.83337 5.33333 1.83337H10.6667C13.1 1.83337 14.5 3.23337 14.5 5.66671V11.3334C14.5 13.7667 13.1 15.1667 10.6667 15.1667ZM5.33333 2.83337C3.42667 2.83337 2.5 3.76004 2.5 5.66671V11.3334C2.5 13.24 3.42667 14.1667 5.33333 14.1667H10.6667C12.5733 14.1667 13.5 13.24 13.5 11.3334V5.66671C13.5 3.76004 12.5733 2.83337 10.6667 2.83337H5.33333Z" fill="#0F62FE"/>
</svg>
